<svg xmlns="http://www.w3.org/2000/svg" xmlns:v="https://svgstorm.com"
viewBox = "0 0 240 89"
width="240"
height="89">
<g fill="None" fill-opacity="0.0" stroke="#FEFDFD" stroke-opacity="1.00" stroke-width="0.3"><path d="
M 0.00 89.00 
L 240.00 89.00
L 240.00 0.00
L 0.00 0.00
L 0.00 89.00
M 21.00 24.00 
C 14.41 29.26 15.80 36.26 12.00 43.00
C 9.02 45.20 15.97 43.11 15.00 43.00
C 17.52 43.29 22.87 47.76 25.00 49.00
C 25.83 49.49 28.05 49.20 28.00 51.00
C 23.17 50.35 17.01 52.31 13.00 50.00
C 11.90 49.37 11.68 48.95 11.00 48.00
C 10.38 47.14 10.16 47.32 10.00 46.00
C 9.31 40.40 7.70 24.92 13.00 22.00
C 16.29 20.18 21.00 21.29 25.00 21.00
C 23.91 22.01 22.41 23.22 21.00 24.00
M 37.00 22.00 
C 40.51 23.81 40.97 30.22 40.00 34.00 C 39.03 37.78 42.29 46.35 39.00 48.00
C 38.53 50.34 35.76 50.01 34.00 50.00
C 34.71 48.37 37.38 48.71 38.00 47.00
C 37.70 45.21 37.50 43.75 37.00 42.00
C 32.77 44.43 26.01 46.79 23.00 41.00
C 27.59 40.29 31.90 36.98 32.00 32.00
C 28.83 34.75 25.27 36.90 21.00 37.00
C 19.97 32.04 23.75 26.60 29.00 27.00
C 28.29 25.32 26.99 23.92 27.00 22.00
C 28.62 19.63 35.19 21.06 37.00 22.00
M 155.00 26.00 
C 151.40 32.00 150.90 35.40 148.22 42.22 C 145.55 49.05 139.52 50.98 132.00 50.00 C 124.48 49.02 116.50 50.37 109.00 50.00 C 101.50 49.63 92.25 50.06 85.00 50.00 C 77.75 49.94 68.56 49.74 62.00 50.00 C 55.44 50.26 42.28 51.67 44.00 44.00 C 45.72 36.33 39.99 26.34 46.00 22.00
C 52.52 17.29 64.48 22.41 73.00 21.00 C 81.52 19.59 92.87 21.66 102.00 21.00 C 111.13 20.34 121.61 21.34 131.00 21.00 C 140.39 20.66 150.54 21.26 160.00 21.00
C 158.74 22.93 157.00 24.91 155.00 26.00
M 233.00 22.00 
C 235.67 23.09 235.91 23.32 237.00 26.00
C 238.87 30.61 239.11 41.50 237.00 46.00
C 236.25 47.60 234.55 49.28 233.00 50.00
C 220.65 55.77 203.06 48.79 189.00 51.00 C 174.94 53.21 157.38 49.35 143.00 51.00
C 144.89 48.38 147.35 45.76 150.00 44.00
C 154.08 37.87 154.50 29.82 159.00 24.00
C 164.66 16.68 185.46 21.31 195.00 21.00 C 204.54 20.69 224.33 18.47 233.00 22.00
M 205.00 61.00 
C 207.51 62.60 206.94 65.08 207.00 68.00
C 207.05 70.41 207.36 72.96 206.00 75.00
C 202.71 73.13 203.53 66.53 205.00 64.00
C 200.72 55.07 195.44 72.29 197.00 75.00
C 195.04 73.55 196.44 70.20 196.00 68.00
C 195.91 66.69 196.62 64.53 195.00 64.00
C 194.61 64.11 192.17 64.86 192.00 65.00
C 190.86 67.47 191.27 69.99 191.00 73.00
C 189.53 78.88 186.07 65.50 188.00 63.00
C 184.21 65.48 185.83 72.58 182.00 74.00
C 181.35 72.99 180.18 70.04 180.00 69.00
C 179.08 74.87 169.53 75.71 171.00 69.00 C 172.47 62.29 176.68 60.56 180.00 66.00
C 180.14 66.22 181.98 66.10 182.00 66.00
C 182.17 64.35 181.87 62.65 182.00 61.00
C 184.84 59.68 183.86 67.70 185.00 63.00
C 186.85 62.40 186.53 59.76 189.00 62.00
C 189.98 62.44 189.88 62.99 190.00 64.00
C 189.70 63.80 193.99 62.01 194.00 62.00
C 197.43 60.03 195.31 61.75 197.00 58.00
C 199.16 51.40 199.52 53.98 200.00 60.00
C 204.77 61.94 204.13 56.56 208.00 57.00
C 208.21 58.77 206.46 60.37 205.00 61.00
M 167.00 62.00 
C 165.36 64.76 159.47 66.74 161.00 72.00
C 164.47 72.94 166.64 69.54 170.00 70.00
C 160.76 80.81 154.30 62.88 167.00 62.00
M 216.00 70.00 
C 216.21 69.41 217.70 68.52 218.00 68.00
C 220.78 63.11 223.89 59.96 226.92 66.08 C 229.96 72.19 219.24 76.05 218.00 72.00
C 217.76 73.74 216.53 77.32 216.00 79.00
C 215.12 81.77 214.45 83.25 212.00 85.00
C 207.20 88.43 199.70 85.64 203.00 79.00
C 204.44 86.82 211.79 86.00 214.00 79.00
C 214.34 77.11 214.58 72.81 214.00 71.00
C 213.69 71.20 213.16 71.66 213.00 72.00
C 209.40 79.32 207.92 70.43 209.00 67.00
C 211.62 58.71 215.52 63.67 216.00 70.00 Z"/>
</g>
<g fill="None" fill-opacity="0.0" stroke="#5D9CC4" stroke-opacity="1.00" stroke-width="0.3"><path d="
M 13.00 22.00 
C 15.83 20.97 22.66 23.89 21.00 24.00
C 22.41 23.22 23.91 22.01 25.00 21.00
C 21.00 21.29 16.29 20.18 13.00 22.00 Z"/>
</g>
<g fill="None" fill-opacity="0.0" stroke="#FB6B6B" stroke-opacity="1.00" stroke-width="0.3"><path d="
M 27.00 22.00 
C 30.08 22.76 34.01 20.99 37.00 22.00
C 35.19 21.06 28.62 19.63 27.00 22.00 Z"/>
</g>
<g fill="None" fill-opacity="0.0" stroke="#FB6D6D" stroke-opacity="1.00" stroke-width="0.3"><path d="
M 46.00 22.00 
C 53.50 18.29 65.50 23.69 74.00 22.00 C 82.50 20.31 93.06 22.79 102.00 22.00 C 110.94 21.21 120.87 22.41 130.00 22.00 C 139.13 21.59 148.82 22.31 158.00 22.00
C 157.46 23.66 155.44 24.33 155.00 26.00
C 157.00 24.91 158.74 22.93 160.00 21.00
C 150.54 21.26 140.39 20.66 131.00 21.00 C 121.61 21.34 111.13 20.34 102.00 21.00 C 92.87 21.66 81.52 19.59 73.00 21.00 C 64.48 22.41 52.52 17.29 46.00 22.00 Z"/>
</g>
<g fill="None" fill-opacity="0.0" stroke="#5999C4" stroke-opacity="1.00" stroke-width="0.3"><path d="
M 159.00 24.00 
C 164.20 19.00 174.78 22.57 182.00 22.00 C 189.22 21.43 199.33 21.45 207.00 22.00 C 214.67 22.55 225.45 20.10 233.00 22.00
C 224.33 18.47 204.54 20.69 195.00 21.00 C 185.46 21.31 164.66 16.68 159.00 24.00 Z"/>
</g>
<g fill="None" fill-opacity="0.0" stroke="#0961A7" stroke-opacity="1.00" stroke-width="0.3"><path d="
M 10.00 46.00 
C 10.03 45.41 11.67 43.59 12.00 43.00
C 15.80 36.26 14.41 29.26 21.00 24.00
C 22.66 23.89 15.83 20.97 13.00 22.00
C 7.70 24.92 9.31 40.40 10.00 46.00 Z"/>
</g>
<g fill="None" fill-opacity="0.0" stroke="#FC1F18" stroke-opacity="1.00" stroke-width="0.3"><path d="
M 38.00 47.00 
C 38.04 47.22 39.00 48.00 39.00 48.00
C 42.29 46.35 39.03 37.78 40.00 34.00 C 40.97 30.22 40.51 23.81 37.00 22.00
C 34.01 20.99 30.08 22.76 27.00 22.00
C 26.99 23.92 28.29 25.32 29.00 27.00
C 23.75 26.60 19.97 32.04 21.00 37.00
C 25.27 36.90 28.83 34.75 32.00 32.00
C 31.90 36.98 27.59 40.29 23.00 41.00
C 26.01 46.79 32.77 44.43 37.00 42.00
C 37.50 43.75 37.70 45.21 38.00 47.00 Z"/>
</g>
<g fill="None" fill-opacity="0.0" stroke="#FC1712" stroke-opacity="1.00" stroke-width="0.3"><path d="
M 155.00 26.00 
C 155.44 24.33 157.46 23.66 158.00 22.00
C 148.82 22.31 139.13 21.59 130.00 22.00 C 120.87 22.41 110.94 21.21 102.00 22.00 C 93.06 22.79 82.50 20.31 74.00 22.00 C 65.50 23.69 53.50 18.29 46.00 22.00
C 39.99 26.34 45.72 36.33 44.00 44.00 C 42.28 51.67 55.44 50.26 62.00 50.00 C 68.56 49.74 77.75 49.94 85.00 50.00 C 92.25 50.06 101.50 49.63 109.00 50.00 C 116.50 50.37 124.48 49.02 132.00 50.00 C 139.52 50.98 145.55 49.05 148.22 42.22 C 150.90 35.40 151.40 32.00 155.00 26.00
M 56.00 40.00 
C 57.98 40.63 61.90 38.73 63.00 41.00
C 63.39 41.81 62.69 43.15 63.00 44.00
C 59.00 44.00 55.00 44.00 51.00 44.00
C 51.00 38.33 51.00 32.67 51.00 27.00
C 55.00 27.00 59.00 27.00 63.00 27.00
C 65.39 33.63 56.20 28.56 56.00 33.00
C 57.09 35.48 62.40 32.11 62.00 36.00
C 59.98 37.95 54.94 35.51 56.00 40.00
M 78.00 38.00 
C 80.56 39.19 81.40 41.96 83.00 44.00
C 78.98 45.04 74.69 41.80 74.00 38.00
C 70.36 38.78 73.56 46.55 67.00 44.00
C 67.00 38.33 67.00 32.67 67.00 27.00
C 74.52 25.12 85.10 30.42 78.00 38.00
M 94.00 27.00 
C 105.07 28.85 99.83 48.04 89.00 44.00 C 78.16 39.96 83.94 25.32 94.00 27.00
M 114.00 32.00 
C 112.38 30.82 107.76 29.81 108.00 33.00
C 121.81 37.46 104.80 51.42 102.00 40.00
C 104.28 40.55 106.81 41.81 109.00 40.00
C 107.27 36.89 100.95 33.69 103.78 29.78 C 106.61 25.87 115.31 25.84 114.00 32.00
M 122.00 34.00 
C 125.70 31.77 127.81 26.45 133.00 28.00
C 131.43 30.28 129.33 32.57 127.00 34.00
C 127.98 37.75 131.78 40.22 133.00 44.00
C 127.84 45.43 125.17 40.54 123.00 37.00
C 121.21 39.93 123.22 46.02 117.00 44.00
C 117.00 38.33 117.00 32.67 117.00 27.00
C 122.33 25.26 122.49 30.08 122.00 34.00
M 141.00 44.00 
C 131.89 45.44 137.58 32.44 136.00 27.00
C 144.89 26.25 139.55 38.64 141.00 44.00 Z"/>
</g>
<g fill="None" fill-opacity="0.0" stroke="#0561A8" stroke-opacity="1.00" stroke-width="0.3"><path d="
M 159.00 24.00 
C 154.50 29.82 154.08 37.87 150.00 44.00
C 148.55 46.18 146.29 47.79 145.00 50.00
C 174.33 50.00 203.67 50.00 233.00 50.00
C 234.55 49.28 236.25 47.60 237.00 46.00
C 238.29 41.68 238.10 30.39 237.00 26.00
C 235.91 23.32 235.67 23.09 233.00 22.00
C 225.45 20.10 214.67 22.55 207.00 22.00 C 199.33 21.45 189.22 21.43 182.00 22.00 C 174.78 22.57 164.20 19.00 159.00 24.00
M 191.00 43.00 
C 189.70 38.31 191.20 30.70 193.00 26.00
C 194.69 30.80 192.60 38.24 191.00 43.00
M 199.00 26.00 
C 199.01 31.80 193.07 25.09 199.00 26.00
M 172.00 31.00 
C 178.03 34.03 171.70 47.38 164.93 43.07 C 158.15 38.76 164.20 27.09 172.00 31.00
M 186.00 43.00 
C 184.00 41.34 188.82 31.27 182.97 32.03 C 177.13 32.79 180.73 40.91 177.00 43.00
C 175.95 39.90 178.04 34.86 178.00 31.00
C 185.91 28.50 191.30 36.28 186.00 43.00
M 196.00 43.00 
C 193.78 39.80 195.24 33.97 197.00 31.00
C 198.95 34.24 196.37 39.17 196.00 43.00
M 209.00 43.00 
C 207.89 41.42 211.38 31.14 205.97 32.03 C 200.56 32.91 203.07 40.65 200.00 43.00
C 198.74 39.96 200.74 34.82 201.00 31.00
C 208.69 28.43 214.68 36.40 209.00 43.00
M 226.00 37.00 
C 224.24 39.79 217.76 36.97 215.00 38.00
C 213.13 41.48 222.90 43.59 224.00 40.00
C 222.63 47.04 211.79 42.87 213.34 36.32 C 214.89 29.78 226.89 28.37 226.00 37.00 Z"/>
</g>
<g fill="None" fill-opacity="0.0" stroke="#C2DBE9" stroke-opacity="1.00" stroke-width="0.3"><path d="
M 191.00 43.00 
C 192.60 38.24 194.69 30.80 193.00 26.00
C 191.20 30.70 189.70 38.31 191.00 43.00 Z"/>
</g>
<g fill="None" fill-opacity="0.0" stroke="#AED1E2" stroke-opacity="1.00" stroke-width="0.3"><path d="
M 199.00 26.00 
C 193.07 25.09 199.01 31.80 199.00 26.00 Z"/>
</g>
<g fill="None" fill-opacity="0.0" stroke="#5B9AC4" stroke-opacity="1.00" stroke-width="0.3"><path d="
M 237.00 46.00 
C 239.11 41.50 238.87 30.61 237.00 26.00
C 238.10 30.39 238.29 41.68 237.00 46.00 Z"/>
</g>
<g fill="None" fill-opacity="0.0" stroke="#FEF1EF" stroke-opacity="1.00" stroke-width="0.3"><path d="
M 63.00 41.00 
C 61.02 40.37 57.10 42.27 56.00 40.00
C 54.94 35.51 59.98 37.95 62.00 36.00
C 62.40 32.11 57.09 35.48 56.00 33.00
C 56.20 28.56 65.39 33.63 63.00 27.00
C 59.00 27.00 55.00 27.00 51.00 27.00
C 51.00 32.67 51.00 38.33 51.00 44.00
C 55.00 44.00 59.00 44.00 63.00 44.00
C 62.69 43.15 63.39 41.81 63.00 41.00 Z"/>
</g>
<g fill="None" fill-opacity="0.0" stroke="#FDF4F1" stroke-opacity="1.00" stroke-width="0.3"><path d="
M 78.00 38.00 
C 85.10 30.42 74.52 25.12 67.00 27.00
C 67.00 32.67 67.00 38.33 67.00 44.00
C 73.56 46.55 70.36 38.78 74.00 38.00
C 74.69 41.80 78.98 45.04 83.00 44.00
C 81.40 41.96 80.56 39.19 78.00 38.00
M 72.00 35.00 
C 70.59 26.49 80.53 35.45 72.00 35.00 Z"/>
</g>
<g fill="None" fill-opacity="0.0" stroke="#FCF5F3" stroke-opacity="1.00" stroke-width="0.3"><path d="
M 94.00 27.00 
C 83.94 25.32 78.16 39.96 89.00 44.00 C 99.83 48.04 105.07 28.85 94.00 27.00
M 93.00 31.00 
C 97.62 32.06 96.44 41.43 90.99 39.99 C 85.54 38.56 88.08 29.87 93.00 31.00 Z"/>
</g>
<g fill="None" fill-opacity="0.0" stroke="#FCF3F1" stroke-opacity="1.00" stroke-width="0.3"><path d="
M 114.00 32.00 
C 115.31 25.84 106.61 25.87 103.78 29.78 C 100.95 33.69 107.27 36.89 109.00 40.00
C 106.81 41.81 104.28 40.55 102.00 40.00
C 104.80 51.42 121.81 37.46 108.00 33.00
C 107.76 29.81 112.38 30.82 114.00 32.00 Z"/>
</g>
<g fill="None" fill-opacity="0.0" stroke="#FCF5F3" stroke-opacity="1.00" stroke-width="0.3"><path d="
M 122.00 34.00 
C 122.49 30.08 122.33 25.26 117.00 27.00
C 117.00 32.67 117.00 38.33 117.00 44.00
C 123.22 46.02 121.21 39.93 123.00 37.00
C 125.17 40.54 127.84 45.43 133.00 44.00
C 131.78 40.22 127.98 37.75 127.00 34.00
C 129.33 32.57 131.43 30.28 133.00 28.00
C 127.81 26.45 125.70 31.77 122.00 34.00 Z"/>
</g>
<g fill="None" fill-opacity="0.0" stroke="#FEF4F2" stroke-opacity="1.00" stroke-width="0.3"><path d="
M 141.00 44.00 
C 139.55 38.64 144.89 26.25 136.00 27.00
C 137.58 32.44 131.89 45.44 141.00 44.00 Z"/>
</g>
<g fill="None" fill-opacity="0.0" stroke="#FC352D" stroke-opacity="1.00" stroke-width="0.3"><path d="
M 72.00 35.00 
C 80.53 35.45 70.59 26.49 72.00 35.00 Z"/>
</g>
<g fill="None" fill-opacity="0.0" stroke="#FB2B25" stroke-opacity="1.00" stroke-width="0.3"><path d="
M 93.00 31.00 
C 88.08 29.87 85.54 38.56 90.99 39.99 C 96.44 41.43 97.62 32.06 93.00 31.00 Z"/>
</g>
<g fill="None" fill-opacity="0.0" stroke="#CFE3ED" stroke-opacity="1.00" stroke-width="0.3"><path d="
M 172.00 31.00 
C 164.20 27.09 158.15 38.76 164.93 43.07 C 171.70 47.38 178.03 34.03 172.00 31.00
M 170.00 32.00 
C 174.99 33.49 172.62 43.15 166.99 41.99 C 161.36 40.84 163.76 30.14 170.00 32.00 Z"/>
</g>
<g fill="None" fill-opacity="0.0" stroke="#CEE2EF" stroke-opacity="1.00" stroke-width="0.3"><path d="
M 186.00 43.00 
C 191.30 36.28 185.91 28.50 178.00 31.00
C 178.04 34.86 175.95 39.90 177.00 43.00
C 180.73 40.91 177.13 32.79 182.97 32.03 C 188.82 31.27 184.00 41.34 186.00 43.00 Z"/>
</g>
<g fill="None" fill-opacity="0.0" stroke="#C1DBE9" stroke-opacity="1.00" stroke-width="0.3"><path d="
M 196.00 43.00 
C 196.37 39.17 198.95 34.24 197.00 31.00
C 195.24 33.97 193.78 39.80 196.00 43.00 Z"/>
</g>
<g fill="None" fill-opacity="0.0" stroke="#CDE3EE" stroke-opacity="1.00" stroke-width="0.3"><path d="
M 209.00 43.00 
C 214.68 36.40 208.69 28.43 201.00 31.00
C 200.74 34.82 198.74 39.96 200.00 43.00
C 203.07 40.65 200.56 32.91 205.97 32.03 C 211.38 31.14 207.89 41.42 209.00 43.00 Z"/>
</g>
<g fill="None" fill-opacity="0.0" stroke="#D5E6F0" stroke-opacity="1.00" stroke-width="0.3"><path d="
M 215.00 38.00 
C 216.52 35.17 223.42 38.05 226.00 37.00
C 226.89 28.37 214.89 29.78 213.34 36.32 C 211.79 42.87 222.63 47.04 224.00 40.00
C 222.90 43.59 213.13 41.48 215.00 38.00
M 224.00 36.00 
C 221.48 35.44 217.70 37.19 216.00 35.00
C 217.47 31.14 224.09 31.25 224.00 36.00 Z"/>
</g>
<g fill="None" fill-opacity="0.0" stroke="#1866AA" stroke-opacity="1.00" stroke-width="0.3"><path d="
M 170.00 32.00 
C 163.76 30.14 161.36 40.84 166.99 41.99 C 172.62 43.15 174.99 33.49 170.00 32.00 Z"/>
</g>
<g fill="None" fill-opacity="0.0" stroke="#1865AA" stroke-opacity="1.00" stroke-width="0.3"><path d="
M 224.00 36.00 
C 224.09 31.25 217.47 31.14 216.00 35.00
C 217.70 37.19 221.48 35.44 224.00 36.00 Z"/>
</g>
<g fill="None" fill-opacity="0.0" stroke="#7CA8CC" stroke-opacity="1.00" stroke-width="0.3"><path d="
M 215.00 38.00 
C 217.76 36.97 224.24 39.79 226.00 37.00
C 223.42 38.05 216.52 35.17 215.00 38.00 Z"/>
</g>
<g fill="None" fill-opacity="0.0" stroke="#FB847D" stroke-opacity="1.00" stroke-width="0.3"><path d="
M 63.00 41.00 
C 61.90 38.73 57.98 40.63 56.00 40.00
C 57.10 42.27 61.02 40.37 63.00 41.00 Z"/>
</g>
<g fill="None" fill-opacity="0.0" stroke="#90BCD6" stroke-opacity="1.00" stroke-width="0.3"><path d="
M 10.00 46.00 
C 10.16 47.32 10.38 47.14 11.00 48.00
C 11.92 47.95 14.19 43.53 15.00 43.00
C 15.97 43.11 9.02 45.20 12.00 43.00
C 11.67 43.59 10.03 45.41 10.00 46.00 Z"/>
</g>
<g fill="None" fill-opacity="0.0" stroke="#1262A8" stroke-opacity="1.00" stroke-width="0.3"><path d="
M 11.00 48.00 
C 11.68 48.95 11.90 49.37 13.00 50.00
C 16.70 51.20 22.21 48.72 25.00 49.00
C 22.87 47.76 17.52 43.29 15.00 43.00
C 14.19 43.53 11.92 47.95 11.00 48.00 Z"/>
</g>
<g fill="None" fill-opacity="0.0" stroke="#BAD7E8" stroke-opacity="1.00" stroke-width="0.3"><path d="
M 233.00 50.00 
C 203.67 50.00 174.33 50.00 145.00 50.00
C 146.29 47.79 148.55 46.18 150.00 44.00
C 147.35 45.76 144.89 48.38 143.00 51.00
C 157.38 49.35 174.94 53.21 189.00 51.00 C 203.06 48.79 220.65 55.77 233.00 50.00 Z"/>
</g>
<g fill="None" fill-opacity="0.0" stroke="#1862A9" stroke-opacity="1.00" stroke-width="0.3"><path d="
M 39.00 48.00 
C 39.00 48.00 38.04 47.22 38.00 47.00
C 37.38 48.71 34.71 48.37 34.00 50.00
C 35.76 50.01 38.53 50.34 39.00 48.00 Z"/>
</g>
<g fill="None" fill-opacity="0.0" stroke="#CAE3EE" stroke-opacity="1.00" stroke-width="0.3"><path d="
M 13.00 50.00 
C 17.01 52.31 23.17 50.35 28.00 51.00
C 28.05 49.20 25.83 49.49 25.00 49.00
C 22.21 48.72 16.70 51.20 13.00 50.00 Z"/>
</g>
<g fill="None" fill-opacity="0.0" stroke="#9EC3DC" stroke-opacity="1.00" stroke-width="0.3"><path d="
M 197.00 58.00 
C 199.67 52.10 198.58 56.46 199.00 61.00
C 201.00 61.00 203.00 61.00 205.00 61.00
C 206.46 60.37 208.21 58.77 208.00 57.00
C 204.13 56.56 204.77 61.94 200.00 60.00
C 199.52 53.98 199.16 51.40 197.00 58.00 Z"/>
</g>
<g fill="None" fill-opacity="0.0" stroke="#1B63A3" stroke-opacity="1.00" stroke-width="0.3"><path d="
M 197.00 58.00 
C 195.31 61.75 197.43 60.03 194.00 62.00
C 192.69 63.12 192.72 63.43 192.00 65.00
C 192.17 64.86 194.61 64.11 195.00 64.00
C 198.69 62.99 196.03 65.94 196.00 68.00
C 196.44 70.20 195.04 73.55 197.00 75.00
C 195.44 72.29 200.72 55.07 205.00 64.00
C 206.30 66.71 204.03 71.13 205.00 74.00
C 207.37 72.97 204.54 68.96 207.00 68.00
C 206.94 65.08 207.51 62.60 205.00 61.00
C 203.00 61.00 201.00 61.00 199.00 61.00
C 198.58 56.46 199.67 52.10 197.00 58.00 Z"/>
</g>
<g fill="None" fill-opacity="0.0" stroke="#1662A3" stroke-opacity="1.00" stroke-width="0.3"><path d="
M 182.00 66.00 
C 181.73 68.64 182.20 71.35 182.00 74.00
C 185.83 72.58 184.21 65.48 188.00 63.00
C 190.25 64.14 187.90 74.40 190.00 73.00
C 189.73 70.03 190.36 66.95 190.00 64.00
C 189.88 62.99 189.98 62.44 189.00 62.00
C 187.57 61.35 186.21 62.61 185.00 63.00
C 183.86 67.70 184.84 59.68 182.00 61.00
C 181.87 62.65 182.17 64.35 182.00 66.00 Z"/>
</g>
<g fill="None" fill-opacity="0.0" stroke="#5D9AC2" stroke-opacity="1.00" stroke-width="0.3"><path d="
M 185.00 63.00 
C 186.21 62.61 187.57 61.35 189.00 62.00
C 186.53 59.76 186.85 62.40 185.00 63.00 Z"/>
</g>
<g fill="None" fill-opacity="0.0" stroke="#1D66A5" stroke-opacity="1.00" stroke-width="0.3"><path d="
M 167.00 62.00 
C 154.30 62.88 160.76 80.81 170.00 70.00
C 166.64 69.54 164.47 72.94 161.00 72.00
C 159.47 66.74 165.36 64.76 167.00 62.00 Z"/>
</g>
<g fill="None" fill-opacity="0.0" stroke="#256CA8" stroke-opacity="1.00" stroke-width="0.3"><path d="
M 180.00 69.00 
C 179.83 68.03 180.11 66.98 180.00 66.00
C 176.68 60.56 172.47 62.29 171.00 69.00 C 169.53 75.71 179.08 74.87 180.00 69.00
M 178.00 64.00 
C 178.67 67.50 177.67 72.79 173.00 72.00
C 172.33 68.50 173.33 63.21 178.00 64.00 Z"/>
</g>
<g fill="None" fill-opacity="0.0" stroke="#AACFE2" stroke-opacity="1.00" stroke-width="0.3"><path d="
M 190.00 64.00 
C 190.36 66.95 189.73 70.03 190.00 73.00
C 190.35 72.77 191.00 73.00 191.00 73.00
C 191.27 69.99 190.86 67.47 192.00 65.00
C 192.72 63.43 192.69 63.12 194.00 62.00
C 193.99 62.01 189.70 63.80 190.00 64.00 Z"/>
</g>
<g fill="None" fill-opacity="0.0" stroke="#266BA9" stroke-opacity="1.00" stroke-width="0.3"><path d="
M 209.00 67.00 
C 208.64 69.28 209.27 71.71 209.00 74.00
C 210.82 74.55 211.47 72.25 213.00 72.00
C 213.16 71.66 213.69 71.20 214.00 71.00
C 216.25 69.53 214.34 77.92 214.00 79.00
C 211.79 86.00 204.44 86.82 203.00 79.00
C 201.38 85.27 207.32 87.34 212.00 85.00
C 214.45 83.25 215.12 81.77 216.00 79.00
C 216.48 76.33 216.21 72.71 216.00 70.00
C 215.52 63.67 211.62 58.71 209.00 67.00
M 211.00 72.00 
C 208.64 69.93 211.29 66.41 212.00 64.00
C 214.46 66.10 212.15 69.72 211.00 72.00 Z"/>
</g>
<g fill="None" fill-opacity="0.0" stroke="#2068A7" stroke-opacity="1.00" stroke-width="0.3"><path d="
M 218.00 68.00 
C 217.85 69.31 218.18 70.69 218.00 72.00
C 219.24 76.05 229.96 72.19 226.92 66.08 C 223.89 59.96 220.78 63.11 218.00 68.00
M 225.00 64.00 
C 226.87 78.47 212.12 66.37 225.00 64.00 Z"/>
</g>
<g fill="None" fill-opacity="0.0" stroke="#73A1C4" stroke-opacity="1.00" stroke-width="0.3"><path d="
M 191.00 73.00 
C 191.00 73.00 190.35 72.77 190.00 73.00
C 187.90 74.40 190.25 64.14 188.00 63.00
C 186.07 65.50 189.53 78.88 191.00 73.00 Z"/>
</g>
<g fill="None" fill-opacity="0.0" stroke="#5992B9" stroke-opacity="1.00" stroke-width="0.3"><path d="
M 195.00 64.00 
C 196.62 64.53 195.91 66.69 196.00 68.00
C 196.03 65.94 198.69 62.99 195.00 64.00 Z"/>
</g>
<g fill="None" fill-opacity="0.0" stroke="#EBF4F7" stroke-opacity="1.00" stroke-width="0.3"><path d="
M 178.00 64.00 
C 173.33 63.21 172.33 68.50 173.00 72.00
C 177.67 72.79 178.67 67.50 178.00 64.00 Z"/>
</g>
<g fill="None" fill-opacity="0.0" stroke="#AACCE1" stroke-opacity="1.00" stroke-width="0.3"><path d="
M 207.00 68.00 
C 204.54 68.96 207.37 72.97 205.00 74.00
C 204.03 71.13 206.30 66.71 205.00 64.00
C 203.53 66.53 202.71 73.13 206.00 75.00
C 207.36 72.96 207.05 70.41 207.00 68.00 Z"/>
</g>
<g fill="None" fill-opacity="0.0" stroke="#D9EAF1" stroke-opacity="1.00" stroke-width="0.3"><path d="
M 211.00 72.00 
C 212.15 69.72 214.46 66.10 212.00 64.00
C 211.29 66.41 208.64 69.93 211.00 72.00 Z"/>
</g>
<g fill="None" fill-opacity="0.0" stroke="#E5F1F6" stroke-opacity="1.00" stroke-width="0.3"><path d="
M 225.00 64.00 
C 212.12 66.37 226.87 78.47 225.00 64.00 Z"/>
</g>
<g fill="None" fill-opacity="0.0" stroke="#AACCDE" stroke-opacity="1.00" stroke-width="0.3"><path d="
M 180.00 69.00 
C 180.18 70.04 181.35 72.99 182.00 74.00
C 182.20 71.35 181.73 68.64 182.00 66.00
C 181.98 66.10 180.14 66.22 180.00 66.00
C 180.11 66.98 179.83 68.03 180.00 69.00 Z"/>
</g>
<g fill="None" fill-opacity="0.0" stroke="#8DBAD5" stroke-opacity="1.00" stroke-width="0.3"><path d="
M 213.00 72.00 
C 211.47 72.25 210.82 74.55 209.00 74.00
C 209.27 71.71 208.64 69.28 209.00 67.00
C 207.92 70.43 209.40 79.32 213.00 72.00 Z"/>
</g>
<g fill="None" fill-opacity="0.0" stroke="#81AECD" stroke-opacity="1.00" stroke-width="0.3"><path d="
M 216.00 70.00 
C 216.21 72.71 216.48 76.33 216.00 79.00
C 216.53 77.32 217.76 73.74 218.00 72.00
C 218.18 70.69 217.85 69.31 218.00 68.00
C 217.70 68.52 216.21 69.41 216.00 70.00 Z"/>
</g>
<g fill="None" fill-opacity="0.0" stroke="#B4CFDF" stroke-opacity="1.00" stroke-width="0.3"><path d="
M 214.00 71.00 
C 214.58 72.81 214.34 77.11 214.00 79.00
C 214.34 77.92 216.25 69.53 214.00 71.00 Z"/>
</g>
<g fill="None" fill-opacity="0.0" stroke="#8AB8D3" stroke-opacity="1.00" stroke-width="0.3"><path d="
M 212.00 85.00 
C 207.32 87.34 201.38 85.27 203.00 79.00
C 199.70 85.64 207.20 88.43 212.00 85.00 Z"/>
</g>
<g fill="#FEFDFD" fill-opacity="1.00" stroke="None">
<path d="
M 0.00 89.00 
L 240.00 89.00
L 240.00 0.00
L 0.00 0.00
L 0.00 89.00
M 21.00 24.00 
C 14.41 29.26 15.80 36.26 12.00 43.00
C 9.02 45.20 15.97 43.11 15.00 43.00
C 17.52 43.29 22.87 47.76 25.00 49.00
C 25.83 49.49 28.05 49.20 28.00 51.00
C 23.17 50.35 17.01 52.31 13.00 50.00
C 11.90 49.37 11.68 48.95 11.00 48.00
C 10.38 47.14 10.16 47.32 10.00 46.00
C 9.31 40.40 7.70 24.92 13.00 22.00
C 16.29 20.18 21.00 21.29 25.00 21.00
C 23.91 22.01 22.41 23.22 21.00 24.00
M 37.00 22.00 
C 40.51 23.81 40.97 30.22 40.00 34.00 C 39.03 37.78 42.29 46.35 39.00 48.00
C 38.53 50.34 35.76 50.01 34.00 50.00
C 34.71 48.37 37.38 48.71 38.00 47.00
C 37.70 45.21 37.50 43.75 37.00 42.00
C 32.77 44.43 26.01 46.79 23.00 41.00
C 27.59 40.29 31.90 36.98 32.00 32.00
C 28.83 34.75 25.27 36.90 21.00 37.00
C 19.97 32.04 23.75 26.60 29.00 27.00
C 28.29 25.32 26.99 23.92 27.00 22.00
C 28.62 19.63 35.19 21.06 37.00 22.00
M 155.00 26.00 
C 151.40 32.00 150.90 35.40 148.22 42.22 C 145.55 49.05 139.52 50.98 132.00 50.00 C 124.48 49.02 116.50 50.37 109.00 50.00 C 101.50 49.63 92.25 50.06 85.00 50.00 C 77.75 49.94 68.56 49.74 62.00 50.00 C 55.44 50.26 42.28 51.67 44.00 44.00 C 45.72 36.33 39.99 26.34 46.00 22.00
C 52.52 17.29 64.48 22.41 73.00 21.00 C 81.52 19.59 92.87 21.66 102.00 21.00 C 111.13 20.34 121.61 21.34 131.00 21.00 C 140.39 20.66 150.54 21.26 160.00 21.00
C 158.74 22.93 157.00 24.91 155.00 26.00
M 233.00 22.00 
C 235.67 23.09 235.91 23.32 237.00 26.00
C 238.87 30.61 239.11 41.50 237.00 46.00
C 236.25 47.60 234.55 49.28 233.00 50.00
C 220.65 55.77 203.06 48.79 189.00 51.00 C 174.94 53.21 157.38 49.35 143.00 51.00
C 144.89 48.38 147.35 45.76 150.00 44.00
C 154.08 37.87 154.50 29.82 159.00 24.00
C 164.66 16.68 185.46 21.31 195.00 21.00 C 204.54 20.69 224.33 18.47 233.00 22.00
M 205.00 61.00 
C 207.51 62.60 206.94 65.08 207.00 68.00
C 207.05 70.41 207.36 72.96 206.00 75.00
C 202.71 73.13 203.53 66.53 205.00 64.00
C 200.72 55.07 195.44 72.29 197.00 75.00
C 195.04 73.55 196.44 70.20 196.00 68.00
C 195.91 66.69 196.62 64.53 195.00 64.00
C 194.61 64.11 192.17 64.86 192.00 65.00
C 190.86 67.47 191.27 69.99 191.00 73.00
C 189.53 78.88 186.07 65.50 188.00 63.00
C 184.21 65.48 185.83 72.58 182.00 74.00
C 181.35 72.99 180.18 70.04 180.00 69.00
C 179.08 74.87 169.53 75.71 171.00 69.00 C 172.47 62.29 176.68 60.56 180.00 66.00
C 180.14 66.22 181.98 66.10 182.00 66.00
C 182.17 64.35 181.87 62.65 182.00 61.00
C 184.84 59.68 183.86 67.70 185.00 63.00
C 186.85 62.40 186.53 59.76 189.00 62.00
C 189.98 62.44 189.88 62.99 190.00 64.00
C 189.70 63.80 193.99 62.01 194.00 62.00
C 197.43 60.03 195.31 61.75 197.00 58.00
C 199.16 51.40 199.52 53.98 200.00 60.00
C 204.77 61.94 204.13 56.56 208.00 57.00
C 208.21 58.77 206.46 60.37 205.00 61.00
M 167.00 62.00 
C 165.36 64.76 159.47 66.74 161.00 72.00
C 164.47 72.94 166.64 69.54 170.00 70.00
C 160.76 80.81 154.30 62.88 167.00 62.00
M 216.00 70.00 
C 216.21 69.41 217.70 68.52 218.00 68.00
C 220.78 63.11 223.89 59.96 226.92 66.08 C 229.96 72.19 219.24 76.05 218.00 72.00
C 217.76 73.74 216.53 77.32 216.00 79.00
C 215.12 81.77 214.45 83.25 212.00 85.00
C 207.20 88.43 199.70 85.64 203.00 79.00
C 204.44 86.82 211.79 86.00 214.00 79.00
C 214.34 77.11 214.58 72.81 214.00 71.00
C 213.69 71.20 213.16 71.66 213.00 72.00
C 209.40 79.32 207.92 70.43 209.00 67.00
C 211.62 58.71 215.52 63.67 216.00 70.00 Z"/>
</g>
<g fill="#5D9CC4" fill-opacity="1.00" stroke="None">
<path d="
M 13.00 22.00 
C 15.83 20.97 22.66 23.89 21.00 24.00
C 22.41 23.22 23.91 22.01 25.00 21.00
C 21.00 21.29 16.29 20.18 13.00 22.00 Z"/>
</g>
<g fill="#FB6B6B" fill-opacity="1.00" stroke="None">
<path d="
M 27.00 22.00 
C 30.08 22.76 34.01 20.99 37.00 22.00
C 35.19 21.06 28.62 19.63 27.00 22.00 Z"/>
</g>
<g fill="#FB6D6D" fill-opacity="1.00" stroke="None">
<path d="
M 46.00 22.00 
C 53.50 18.29 65.50 23.69 74.00 22.00 C 82.50 20.31 93.06 22.79 102.00 22.00 C 110.94 21.21 120.87 22.41 130.00 22.00 C 139.13 21.59 148.82 22.31 158.00 22.00
C 157.46 23.66 155.44 24.33 155.00 26.00
C 157.00 24.91 158.74 22.93 160.00 21.00
C 150.54 21.26 140.39 20.66 131.00 21.00 C 121.61 21.34 111.13 20.34 102.00 21.00 C 92.87 21.66 81.52 19.59 73.00 21.00 C 64.48 22.41 52.52 17.29 46.00 22.00 Z"/>
</g>
<g fill="#5999C4" fill-opacity="1.00" stroke="None">
<path d="
M 159.00 24.00 
C 164.20 19.00 174.78 22.57 182.00 22.00 C 189.22 21.43 199.33 21.45 207.00 22.00 C 214.67 22.55 225.45 20.10 233.00 22.00
C 224.33 18.47 204.54 20.69 195.00 21.00 C 185.46 21.31 164.66 16.68 159.00 24.00 Z"/>
</g>
<g fill="#0961A7" fill-opacity="1.00" stroke="None">
<path d="
M 10.00 46.00 
C 10.03 45.41 11.67 43.59 12.00 43.00
C 15.80 36.26 14.41 29.26 21.00 24.00
C 22.66 23.89 15.83 20.97 13.00 22.00
C 7.70 24.92 9.31 40.40 10.00 46.00 Z"/>
</g>
<g fill="#FC1F18" fill-opacity="1.00" stroke="None">
<path d="
M 38.00 47.00 
C 38.04 47.22 39.00 48.00 39.00 48.00
C 42.29 46.35 39.03 37.78 40.00 34.00 C 40.97 30.22 40.51 23.81 37.00 22.00
C 34.01 20.99 30.08 22.76 27.00 22.00
C 26.99 23.92 28.29 25.32 29.00 27.00
C 23.75 26.60 19.97 32.04 21.00 37.00
C 25.27 36.90 28.83 34.75 32.00 32.00
C 31.90 36.98 27.59 40.29 23.00 41.00
C 26.01 46.79 32.77 44.43 37.00 42.00
C 37.50 43.75 37.70 45.21 38.00 47.00 Z"/>
</g>
<g fill="#FC1712" fill-opacity="1.00" stroke="None">
<path d="
M 155.00 26.00 
C 155.44 24.33 157.46 23.66 158.00 22.00
C 148.82 22.31 139.13 21.59 130.00 22.00 C 120.87 22.41 110.94 21.21 102.00 22.00 C 93.06 22.79 82.50 20.31 74.00 22.00 C 65.50 23.69 53.50 18.29 46.00 22.00
C 39.99 26.34 45.72 36.33 44.00 44.00 C 42.28 51.67 55.44 50.26 62.00 50.00 C 68.56 49.74 77.75 49.94 85.00 50.00 C 92.25 50.06 101.50 49.63 109.00 50.00 C 116.50 50.37 124.48 49.02 132.00 50.00 C 139.52 50.98 145.55 49.05 148.22 42.22 C 150.90 35.40 151.40 32.00 155.00 26.00
M 56.00 40.00 
C 57.98 40.63 61.90 38.73 63.00 41.00
C 63.39 41.81 62.69 43.15 63.00 44.00
C 59.00 44.00 55.00 44.00 51.00 44.00
C 51.00 38.33 51.00 32.67 51.00 27.00
C 55.00 27.00 59.00 27.00 63.00 27.00
C 65.39 33.63 56.20 28.56 56.00 33.00
C 57.09 35.48 62.40 32.11 62.00 36.00
C 59.98 37.95 54.94 35.51 56.00 40.00
M 78.00 38.00 
C 80.56 39.19 81.40 41.96 83.00 44.00
C 78.98 45.04 74.69 41.80 74.00 38.00
C 70.36 38.78 73.56 46.55 67.00 44.00
C 67.00 38.33 67.00 32.67 67.00 27.00
C 74.52 25.12 85.10 30.42 78.00 38.00
M 94.00 27.00 
C 105.07 28.85 99.83 48.04 89.00 44.00 C 78.16 39.96 83.94 25.32 94.00 27.00
M 114.00 32.00 
C 112.38 30.82 107.76 29.81 108.00 33.00
C 121.81 37.46 104.80 51.42 102.00 40.00
C 104.28 40.55 106.81 41.81 109.00 40.00
C 107.27 36.89 100.95 33.69 103.78 29.78 C 106.61 25.87 115.31 25.84 114.00 32.00
M 122.00 34.00 
C 125.70 31.77 127.81 26.45 133.00 28.00
C 131.43 30.28 129.33 32.57 127.00 34.00
C 127.98 37.75 131.78 40.22 133.00 44.00
C 127.84 45.43 125.17 40.54 123.00 37.00
C 121.21 39.93 123.22 46.02 117.00 44.00
C 117.00 38.33 117.00 32.67 117.00 27.00
C 122.33 25.26 122.49 30.08 122.00 34.00
M 141.00 44.00 
C 131.89 45.44 137.58 32.44 136.00 27.00
C 144.89 26.25 139.55 38.64 141.00 44.00 Z"/>
</g>
<g fill="#0561A8" fill-opacity="1.00" stroke="None">
<path d="
M 159.00 24.00 
C 154.50 29.82 154.08 37.87 150.00 44.00
C 148.55 46.18 146.29 47.79 145.00 50.00
C 174.33 50.00 203.67 50.00 233.00 50.00
C 234.55 49.28 236.25 47.60 237.00 46.00
C 238.29 41.68 238.10 30.39 237.00 26.00
C 235.91 23.32 235.67 23.09 233.00 22.00
C 225.45 20.10 214.67 22.55 207.00 22.00 C 199.33 21.45 189.22 21.43 182.00 22.00 C 174.78 22.57 164.20 19.00 159.00 24.00
M 191.00 43.00 
C 189.70 38.31 191.20 30.70 193.00 26.00
C 194.69 30.80 192.60 38.24 191.00 43.00
M 199.00 26.00 
C 199.01 31.80 193.07 25.09 199.00 26.00
M 172.00 31.00 
C 178.03 34.03 171.70 47.38 164.93 43.07 C 158.15 38.76 164.20 27.09 172.00 31.00
M 186.00 43.00 
C 184.00 41.34 188.82 31.27 182.97 32.03 C 177.13 32.79 180.73 40.91 177.00 43.00
C 175.95 39.90 178.04 34.86 178.00 31.00
C 185.91 28.50 191.30 36.28 186.00 43.00
M 196.00 43.00 
C 193.78 39.80 195.24 33.97 197.00 31.00
C 198.95 34.24 196.37 39.17 196.00 43.00
M 209.00 43.00 
C 207.89 41.42 211.38 31.14 205.97 32.03 C 200.56 32.91 203.07 40.65 200.00 43.00
C 198.74 39.96 200.74 34.82 201.00 31.00
C 208.69 28.43 214.68 36.40 209.00 43.00
M 226.00 37.00 
C 224.24 39.79 217.76 36.97 215.00 38.00
C 213.13 41.48 222.90 43.59 224.00 40.00
C 222.63 47.04 211.79 42.87 213.34 36.32 C 214.89 29.78 226.89 28.37 226.00 37.00 Z"/>
</g>
<g fill="#C2DBE9" fill-opacity="1.00" stroke="None">
<path d="
M 191.00 43.00 
C 192.60 38.24 194.69 30.80 193.00 26.00
C 191.20 30.70 189.70 38.31 191.00 43.00 Z"/>
</g>
<g fill="#AED1E2" fill-opacity="1.00" stroke="None">
<path d="
M 199.00 26.00 
C 193.07 25.09 199.01 31.80 199.00 26.00 Z"/>
</g>
<g fill="#5B9AC4" fill-opacity="1.00" stroke="None">
<path d="
M 237.00 46.00 
C 239.11 41.50 238.87 30.61 237.00 26.00
C 238.10 30.39 238.29 41.68 237.00 46.00 Z"/>
</g>
<g fill="#FEF1EF" fill-opacity="1.00" stroke="None">
<path d="
M 63.00 41.00 
C 61.02 40.37 57.10 42.27 56.00 40.00
C 54.94 35.51 59.98 37.95 62.00 36.00
C 62.40 32.11 57.09 35.48 56.00 33.00
C 56.20 28.56 65.39 33.63 63.00 27.00
C 59.00 27.00 55.00 27.00 51.00 27.00
C 51.00 32.67 51.00 38.33 51.00 44.00
C 55.00 44.00 59.00 44.00 63.00 44.00
C 62.69 43.15 63.39 41.81 63.00 41.00 Z"/>
</g>
<g fill="#FDF4F1" fill-opacity="1.00" stroke="None">
<path d="
M 78.00 38.00 
C 85.10 30.42 74.52 25.12 67.00 27.00
C 67.00 32.67 67.00 38.33 67.00 44.00
C 73.56 46.55 70.36 38.78 74.00 38.00
C 74.69 41.80 78.98 45.04 83.00 44.00
C 81.40 41.96 80.56 39.19 78.00 38.00
M 72.00 35.00 
C 70.59 26.49 80.53 35.45 72.00 35.00 Z"/>
</g>
<g fill="#FCF5F3" fill-opacity="1.00" stroke="None">
<path d="
M 94.00 27.00 
C 83.94 25.32 78.16 39.96 89.00 44.00 C 99.83 48.04 105.07 28.85 94.00 27.00
M 93.00 31.00 
C 97.62 32.06 96.44 41.43 90.99 39.99 C 85.54 38.56 88.08 29.87 93.00 31.00 Z"/>
</g>
<g fill="#FCF3F1" fill-opacity="1.00" stroke="None">
<path d="
M 114.00 32.00 
C 115.31 25.84 106.61 25.87 103.78 29.78 C 100.95 33.69 107.27 36.89 109.00 40.00
C 106.81 41.81 104.28 40.55 102.00 40.00
C 104.80 51.42 121.81 37.46 108.00 33.00
C 107.76 29.81 112.38 30.82 114.00 32.00 Z"/>
</g>
<g fill="#FCF5F3" fill-opacity="1.00" stroke="None">
<path d="
M 122.00 34.00 
C 122.49 30.08 122.33 25.26 117.00 27.00
C 117.00 32.67 117.00 38.33 117.00 44.00
C 123.22 46.02 121.21 39.93 123.00 37.00
C 125.17 40.54 127.84 45.43 133.00 44.00
C 131.78 40.22 127.98 37.75 127.00 34.00
C 129.33 32.57 131.43 30.28 133.00 28.00
C 127.81 26.45 125.70 31.77 122.00 34.00 Z"/>
</g>
<g fill="#FEF4F2" fill-opacity="1.00" stroke="None">
<path d="
M 141.00 44.00 
C 139.55 38.64 144.89 26.25 136.00 27.00
C 137.58 32.44 131.89 45.44 141.00 44.00 Z"/>
</g>
<g fill="#FC352D" fill-opacity="1.00" stroke="None">
<path d="
M 72.00 35.00 
C 80.53 35.45 70.59 26.49 72.00 35.00 Z"/>
</g>
<g fill="#FB2B25" fill-opacity="1.00" stroke="None">
<path d="
M 93.00 31.00 
C 88.08 29.87 85.54 38.56 90.99 39.99 C 96.44 41.43 97.62 32.06 93.00 31.00 Z"/>
</g>
<g fill="#CFE3ED" fill-opacity="1.00" stroke="None">
<path d="
M 172.00 31.00 
C 164.20 27.09 158.15 38.76 164.93 43.07 C 171.70 47.38 178.03 34.03 172.00 31.00
M 170.00 32.00 
C 174.99 33.49 172.62 43.15 166.99 41.99 C 161.36 40.84 163.76 30.14 170.00 32.00 Z"/>
</g>
<g fill="#CEE2EF" fill-opacity="1.00" stroke="None">
<path d="
M 186.00 43.00 
C 191.30 36.28 185.91 28.50 178.00 31.00
C 178.04 34.86 175.95 39.90 177.00 43.00
C 180.73 40.91 177.13 32.79 182.97 32.03 C 188.82 31.27 184.00 41.34 186.00 43.00 Z"/>
</g>
<g fill="#C1DBE9" fill-opacity="1.00" stroke="None">
<path d="
M 196.00 43.00 
C 196.37 39.17 198.95 34.24 197.00 31.00
C 195.24 33.97 193.78 39.80 196.00 43.00 Z"/>
</g>
<g fill="#CDE3EE" fill-opacity="1.00" stroke="None">
<path d="
M 209.00 43.00 
C 214.68 36.40 208.69 28.43 201.00 31.00
C 200.74 34.82 198.74 39.96 200.00 43.00
C 203.07 40.65 200.56 32.91 205.97 32.03 C 211.38 31.14 207.89 41.42 209.00 43.00 Z"/>
</g>
<g fill="#D5E6F0" fill-opacity="1.00" stroke="None">
<path d="
M 215.00 38.00 
C 216.52 35.17 223.42 38.05 226.00 37.00
C 226.89 28.37 214.89 29.78 213.34 36.32 C 211.79 42.87 222.63 47.04 224.00 40.00
C 222.90 43.59 213.13 41.48 215.00 38.00
M 224.00 36.00 
C 221.48 35.44 217.70 37.19 216.00 35.00
C 217.47 31.14 224.09 31.25 224.00 36.00 Z"/>
</g>
<g fill="#1866AA" fill-opacity="1.00" stroke="None">
<path d="
M 170.00 32.00 
C 163.76 30.14 161.36 40.84 166.99 41.99 C 172.62 43.15 174.99 33.49 170.00 32.00 Z"/>
</g>
<g fill="#1865AA" fill-opacity="1.00" stroke="None">
<path d="
M 224.00 36.00 
C 224.09 31.25 217.47 31.14 216.00 35.00
C 217.70 37.19 221.48 35.44 224.00 36.00 Z"/>
</g>
<g fill="#7CA8CC" fill-opacity="1.00" stroke="None">
<path d="
M 215.00 38.00 
C 217.76 36.97 224.24 39.79 226.00 37.00
C 223.42 38.05 216.52 35.17 215.00 38.00 Z"/>
</g>
<g fill="#FB847D" fill-opacity="1.00" stroke="None">
<path d="
M 63.00 41.00 
C 61.90 38.73 57.98 40.63 56.00 40.00
C 57.10 42.27 61.02 40.37 63.00 41.00 Z"/>
</g>
<g fill="#90BCD6" fill-opacity="1.00" stroke="None">
<path d="
M 10.00 46.00 
C 10.16 47.32 10.38 47.14 11.00 48.00
C 11.92 47.95 14.19 43.53 15.00 43.00
C 15.97 43.11 9.02 45.20 12.00 43.00
C 11.67 43.59 10.03 45.41 10.00 46.00 Z"/>
</g>
<g fill="#1262A8" fill-opacity="1.00" stroke="None">
<path d="
M 11.00 48.00 
C 11.68 48.95 11.90 49.37 13.00 50.00
C 16.70 51.20 22.21 48.72 25.00 49.00
C 22.87 47.76 17.52 43.29 15.00 43.00
C 14.19 43.53 11.92 47.95 11.00 48.00 Z"/>
</g>
<g fill="#BAD7E8" fill-opacity="1.00" stroke="None">
<path d="
M 233.00 50.00 
C 203.67 50.00 174.33 50.00 145.00 50.00
C 146.29 47.79 148.55 46.18 150.00 44.00
C 147.35 45.76 144.89 48.38 143.00 51.00
C 157.38 49.35 174.94 53.21 189.00 51.00 C 203.06 48.79 220.65 55.77 233.00 50.00 Z"/>
</g>
<g fill="#1862A9" fill-opacity="1.00" stroke="None">
<path d="
M 39.00 48.00 
C 39.00 48.00 38.04 47.22 38.00 47.00
C 37.38 48.71 34.71 48.37 34.00 50.00
C 35.76 50.01 38.53 50.34 39.00 48.00 Z"/>
</g>
<g fill="#CAE3EE" fill-opacity="1.00" stroke="None">
<path d="
M 13.00 50.00 
C 17.01 52.31 23.17 50.35 28.00 51.00
C 28.05 49.20 25.83 49.49 25.00 49.00
C 22.21 48.72 16.70 51.20 13.00 50.00 Z"/>
</g>
<g fill="#9EC3DC" fill-opacity="1.00" stroke="None">
<path d="
M 197.00 58.00 
C 199.67 52.10 198.58 56.46 199.00 61.00
C 201.00 61.00 203.00 61.00 205.00 61.00
C 206.46 60.37 208.21 58.77 208.00 57.00
C 204.13 56.56 204.77 61.94 200.00 60.00
C 199.52 53.98 199.16 51.40 197.00 58.00 Z"/>
</g>
<g fill="#1B63A3" fill-opacity="1.00" stroke="None">
<path d="
M 197.00 58.00 
C 195.31 61.75 197.43 60.03 194.00 62.00
C 192.69 63.12 192.72 63.43 192.00 65.00
C 192.17 64.86 194.61 64.11 195.00 64.00
C 198.69 62.99 196.03 65.94 196.00 68.00
C 196.44 70.20 195.04 73.55 197.00 75.00
C 195.44 72.29 200.72 55.07 205.00 64.00
C 206.30 66.71 204.03 71.13 205.00 74.00
C 207.37 72.97 204.54 68.96 207.00 68.00
C 206.94 65.08 207.51 62.60 205.00 61.00
C 203.00 61.00 201.00 61.00 199.00 61.00
C 198.58 56.46 199.67 52.10 197.00 58.00 Z"/>
</g>
<g fill="#1662A3" fill-opacity="1.00" stroke="None">
<path d="
M 182.00 66.00 
C 181.73 68.64 182.20 71.35 182.00 74.00
C 185.83 72.58 184.21 65.48 188.00 63.00
C 190.25 64.14 187.90 74.40 190.00 73.00
C 189.73 70.03 190.36 66.95 190.00 64.00
C 189.88 62.99 189.98 62.44 189.00 62.00
C 187.57 61.35 186.21 62.61 185.00 63.00
C 183.86 67.70 184.84 59.68 182.00 61.00
C 181.87 62.65 182.17 64.35 182.00 66.00 Z"/>
</g>
<g fill="#5D9AC2" fill-opacity="1.00" stroke="None">
<path d="
M 185.00 63.00 
C 186.21 62.61 187.57 61.35 189.00 62.00
C 186.53 59.76 186.85 62.40 185.00 63.00 Z"/>
</g>
<g fill="#1D66A5" fill-opacity="1.00" stroke="None">
<path d="
M 167.00 62.00 
C 154.30 62.88 160.76 80.81 170.00 70.00
C 166.64 69.54 164.47 72.94 161.00 72.00
C 159.47 66.74 165.36 64.76 167.00 62.00 Z"/>
</g>
<g fill="#256CA8" fill-opacity="1.00" stroke="None">
<path d="
M 180.00 69.00 
C 179.83 68.03 180.11 66.98 180.00 66.00
C 176.68 60.56 172.47 62.29 171.00 69.00 C 169.53 75.71 179.08 74.87 180.00 69.00
M 178.00 64.00 
C 178.67 67.50 177.67 72.79 173.00 72.00
C 172.33 68.50 173.33 63.21 178.00 64.00 Z"/>
</g>
<g fill="#AACFE2" fill-opacity="1.00" stroke="None">
<path d="
M 190.00 64.00 
C 190.36 66.95 189.73 70.03 190.00 73.00
C 190.35 72.77 191.00 73.00 191.00 73.00
C 191.27 69.99 190.86 67.47 192.00 65.00
C 192.72 63.43 192.69 63.12 194.00 62.00
C 193.99 62.01 189.70 63.80 190.00 64.00 Z"/>
</g>
<g fill="#266BA9" fill-opacity="1.00" stroke="None">
<path d="
M 209.00 67.00 
C 208.64 69.28 209.27 71.71 209.00 74.00
C 210.82 74.55 211.47 72.25 213.00 72.00
C 213.16 71.66 213.69 71.20 214.00 71.00
C 216.25 69.53 214.34 77.92 214.00 79.00
C 211.79 86.00 204.44 86.82 203.00 79.00
C 201.38 85.27 207.32 87.34 212.00 85.00
C 214.45 83.25 215.12 81.77 216.00 79.00
C 216.48 76.33 216.21 72.71 216.00 70.00
C 215.52 63.67 211.62 58.71 209.00 67.00
M 211.00 72.00 
C 208.64 69.93 211.29 66.41 212.00 64.00
C 214.46 66.10 212.15 69.72 211.00 72.00 Z"/>
</g>
<g fill="#2068A7" fill-opacity="1.00" stroke="None">
<path d="
M 218.00 68.00 
C 217.85 69.31 218.18 70.69 218.00 72.00
C 219.24 76.05 229.96 72.19 226.92 66.08 C 223.89 59.96 220.78 63.11 218.00 68.00
M 225.00 64.00 
C 226.87 78.47 212.12 66.37 225.00 64.00 Z"/>
</g>
<g fill="#73A1C4" fill-opacity="1.00" stroke="None">
<path d="
M 191.00 73.00 
C 191.00 73.00 190.35 72.77 190.00 73.00
C 187.90 74.40 190.25 64.14 188.00 63.00
C 186.07 65.50 189.53 78.88 191.00 73.00 Z"/>
</g>
<g fill="#5992B9" fill-opacity="1.00" stroke="None">
<path d="
M 195.00 64.00 
C 196.62 64.53 195.91 66.69 196.00 68.00
C 196.03 65.94 198.69 62.99 195.00 64.00 Z"/>
</g>
<g fill="#EBF4F7" fill-opacity="1.00" stroke="None">
<path d="
M 178.00 64.00 
C 173.33 63.21 172.33 68.50 173.00 72.00
C 177.67 72.79 178.67 67.50 178.00 64.00 Z"/>
</g>
<g fill="#AACCE1" fill-opacity="1.00" stroke="None">
<path d="
M 207.00 68.00 
C 204.54 68.96 207.37 72.97 205.00 74.00
C 204.03 71.13 206.30 66.71 205.00 64.00
C 203.53 66.53 202.71 73.13 206.00 75.00
C 207.36 72.96 207.05 70.41 207.00 68.00 Z"/>
</g>
<g fill="#D9EAF1" fill-opacity="1.00" stroke="None">
<path d="
M 211.00 72.00 
C 212.15 69.72 214.46 66.10 212.00 64.00
C 211.29 66.41 208.64 69.93 211.00 72.00 Z"/>
</g>
<g fill="#E5F1F6" fill-opacity="1.00" stroke="None">
<path d="
M 225.00 64.00 
C 212.12 66.37 226.87 78.47 225.00 64.00 Z"/>
</g>
<g fill="#AACCDE" fill-opacity="1.00" stroke="None">
<path d="
M 180.00 69.00 
C 180.18 70.04 181.35 72.99 182.00 74.00
C 182.20 71.35 181.73 68.64 182.00 66.00
C 181.98 66.10 180.14 66.22 180.00 66.00
C 180.11 66.98 179.83 68.03 180.00 69.00 Z"/>
</g>
<g fill="#8DBAD5" fill-opacity="1.00" stroke="None">
<path d="
M 213.00 72.00 
C 211.47 72.25 210.82 74.55 209.00 74.00
C 209.27 71.71 208.64 69.28 209.00 67.00
C 207.92 70.43 209.40 79.32 213.00 72.00 Z"/>
</g>
<g fill="#81AECD" fill-opacity="1.00" stroke="None">
<path d="
M 216.00 70.00 
C 216.21 72.71 216.48 76.33 216.00 79.00
C 216.53 77.32 217.76 73.74 218.00 72.00
C 218.18 70.69 217.85 69.31 218.00 68.00
C 217.70 68.52 216.21 69.41 216.00 70.00 Z"/>
</g>
<g fill="#B4CFDF" fill-opacity="1.00" stroke="None">
<path d="
M 214.00 71.00 
C 214.58 72.81 214.34 77.11 214.00 79.00
C 214.34 77.92 216.25 69.53 214.00 71.00 Z"/>
</g>
<g fill="#8AB8D3" fill-opacity="1.00" stroke="None">
<path d="
M 212.00 85.00 
C 207.32 87.34 201.38 85.27 203.00 79.00
C 199.70 85.64 207.20 88.43 212.00 85.00 Z"/>
</g>
</svg>